<svg xmlns="http://www.w3.org/2000/svg" viewBox="0 0 512 512">
  <rect width="512" height="512" rx="64" fill="#03A9F4"/>
  <path d="M256 128c-70.7 0-128 57.3-128 128s57.3 128 128 128 128-57.3 128-128-57.3-128-128-128zm0 200c-39.8 0-72-32.2-72-72s32.2-72 72-72 72 32.2 72 72-32.2 72-72 72z" fill="white"/>
  <path d="M256 176c-44.2 0-80 35.8-80 80s35.8 80 80 80 80-35.8 80-80-35.8-80-80-80zm0 128c-26.5 0-48-21.5-48-48s21.5-48 48-48 48 21.5 48 48-21.5 48-48 48z" fill="white"/>
  <circle cx="256" cy="256" r="16" fill="white"/>
  <path d="M160 80l-32 32 32 32M352 80l32 32-32 32M160 432l-32-32 32-32M352 432l32-32-32-32" stroke="white" stroke-width="24" stroke-linecap="round" fill="none"/>
</svg>